<svg xmlns="http://www.w3.org/2000/svg" width="194.473" height="35.82"><path d="M108.832 26.439h4.176V10.688h-4.176Zm0-18.207h4.176V4.487h-4.176Z" data-name="Path 65788"/><path d="M115.698 31.597h4.177v-6.939h.061a5.071 5.071 0 0 0 4.539 2.245c4.053 0 6.817-3.224 6.817-8.32 0-4.913-2.671-8.321-6.847-8.321a5.5 5.5 0 0 0-4.636 2.395h-.092v-1.969h-4.022Zm7.89-8.167c-2.487 0-3.807-1.873-3.807-4.728 0-2.825 1.043-5.066 3.654-5.066 2.579 0 3.622 2.088 3.622 5.066s-1.35 4.728-3.469 4.728Z" data-name="Path 65789"/><path d="M139.624 26.903c3.93 0 6.632-1.9 6.632-5.066 0-3.684-2.917-4.421-5.558-4.974-2.241-.461-4.329-.583-4.329-1.934 0-1.136 1.075-1.75 2.7-1.75 1.781 0 2.856.614 3.039 2.3h3.776c-.306-3.162-2.609-5.22-6.754-5.22-3.593 0-6.417 1.627-6.417 5.035 0 3.439 2.764 4.206 5.588 4.759 2.149.43 4.144.583 4.144 2.088 0 1.105-1.043 1.812-2.885 1.812-1.873 0-3.163-.8-3.439-2.61h-3.869c.249 3.346 2.798 5.56 7.372 5.56Z" data-name="Path 65790"/><path d="M162.11 26.439V10.688h-4.176v9.088c0 2.088-1.2 3.562-3.162 3.562-1.781 0-2.61-1.013-2.61-2.855v-9.795h-4.145v10.5c0 3.439 1.965 5.68 5.465 5.68a5.054 5.054 0 0 0 4.513-2.272h.092v1.842Z" data-name="Path 65791"/><path d="M164.81 26.439h4.176v-9.15c0-2.088 1.136-3.439 2.825-3.439 1.535 0 2.425.921 2.425 2.7v9.886h4.176v-9.147c0-2.088 1.075-3.439 2.824-3.439 1.536 0 2.426.921 2.426 2.7v9.886h4.176v-10.59c0-3.439-1.873-5.588-5.189-5.588a5.5 5.5 0 0 0-4.728 2.763h-.061a4.7 4.7 0 0 0-4.36-2.763 5.142 5.142 0 0 0-4.575 2.545h-.092v-2.115h-4.023Z" data-name="Path 65792"/><path d="M0 26.439h4.176V4.487H0Z" data-name="Path 65793"/><path d="M14.386 26.903a8.008 8.008 0 0 0 8.228-8.32 8.008 8.008 0 0 0-8.228-8.321 8.008 8.008 0 0 0-8.228 8.317 8.008 8.008 0 0 0 8.228 8.324Zm0-3.193c-2.579 0-3.991-2.057-3.991-5.127s1.412-5.158 3.991-5.158c2.548 0 3.991 2.088 3.991 5.158s-1.442 5.12-3.991 5.12Z" data-name="Path 65794"/><path d="M31.494 31.812a8.241 8.241 0 0 0 5.68-1.781 6.112 6.112 0 0 0 1.873-4.79V10.688h-4.022v1.658h-.061a5.077 5.077 0 0 0-4.36-2.088c-3.991 0-6.816 3.009-6.816 7.706 0 4.759 3.439 7.522 6.939 7.522a5.09 5.09 0 0 0 4.114-1.842h.092v1.719c0 2.149-1.136 3.285-3.5 3.285-1.934 0-2.825-.768-3.162-1.75h-4.146c.43 3.072 3.075 4.914 7.369 4.914Zm-.061-9.671c-2.149 0-3.562-1.566-3.562-4.237 0-2.64 1.412-4.3 3.531-4.3 2.518 0 3.746 1.965 3.746 4.268-.001 2.331-1.075 4.268-3.716 4.268Z" data-name="Path 65795"/><path d="M49.196 26.903a8.008 8.008 0 0 0 8.228-8.32 8.229 8.229 0 1 0-16.457 0 8.008 8.008 0 0 0 8.229 8.32Zm0-3.193c-2.579 0-3.991-2.057-3.991-5.127s1.412-5.158 3.991-5.158c2.548 0 3.991 2.088 3.991 5.158s-1.442 5.12-3.991 5.12Z" data-name="Path 65796"/><path d="M189.355 8.104a1.28 1.28 0 0 1 1.28-1.279h2.558a1.28 1.28 0 1 1 0 2.559h-2.558a1.28 1.28 0 0 1-1.28-1.28Z" data-name="Path 65797"/><path fill-rule="evenodd" d="M82.748 0a17.91 17.91 0 1 1-17.91 17.91A17.911 17.911 0 0 1 82.748 0ZM82.1 1.34c-2.043.288-3.989 1.929-5.5 4.675a18.637 18.637 0 0 0-1.178 2.627 29.964 29.964 0 0 1 6.677-.867Zm-8.19 7.732a20.681 20.681 0 0 1 1.557-3.681 13.141 13.141 0 0 1 2.643-3.439 16.65 16.65 0 0 0-11.32 11.316 13.141 13.141 0 0 1 3.44-2.638 20.677 20.677 0 0 1 3.68-1.558Zm-.43 1.514a29.964 29.964 0 0 0-.87 6.677h-6.432c.288-2.043 1.929-3.989 4.675-5.5a18.643 18.643 0 0 1 2.627-1.177Zm.428 6.677a28.186 28.186 0 0 1 1.041-7.152A28.186 28.186 0 0 1 82.1 9.07v2.8a9.529 9.529 0 0 1-5.4 5.4Zm-1.298 1.294h-6.432c.288 2.043 1.929 3.989 4.675 5.5a18.643 18.643 0 0 0 2.627 1.178 29.964 29.964 0 0 1-.87-6.678Zm2.336 7.152a28.186 28.186 0 0 1-1.036-7.152h2.8a9.529 9.529 0 0 1 5.4 5.4v2.8a28.186 28.186 0 0 1-7.162-1.047Zm-1.036 1.039a20.677 20.677 0 0 1-3.681-1.557 13.141 13.141 0 0 1-3.44-2.638A16.65 16.65 0 0 0 78.11 33.868a13.141 13.141 0 0 1-2.638-3.44 20.68 20.68 0 0 1-1.562-3.68Zm8.19 7.732c-2.043-.288-3.989-1.929-5.5-4.675a18.639 18.639 0 0 1-1.178-2.627 29.965 29.965 0 0 0 6.677.867Zm5.29-.612a13.141 13.141 0 0 0 2.638-3.44 20.674 20.674 0 0 0 1.557-3.681 20.687 20.687 0 0 0 3.681-1.557 13.14 13.14 0 0 0 3.44-2.638A16.651 16.651 0 0 1 87.39 33.868Zm2.682-6.69a18.7 18.7 0 0 1-1.178 2.622c-1.51 2.746-3.456 4.388-5.5 4.675v-6.429a29.972 29.972 0 0 0 6.678-.868Zm1.943-1.944a18.624 18.624 0 0 0 2.627-1.178c2.747-1.51 4.388-3.456 4.675-5.5h-6.434a30 30 0 0 1-.867 6.678Zm-.427-6.677a28.165 28.165 0 0 1-1.041 7.152 28.181 28.181 0 0 1-7.152 1.041v-2.794a9.529 9.529 0 0 1 5.4-5.4Zm1.295-1.295h6.434c-.287-2.043-1.929-3.989-4.675-5.5a18.624 18.624 0 0 0-2.627-1.178 30 30 0 0 1 .868 6.679Zm-2.336-7.152a28.165 28.165 0 0 1 1.041 7.152h-2.8a9.529 9.529 0 0 1-5.4-5.4V9.07a28.181 28.181 0 0 1 7.159 1.04Zm1.039-1.038a20.687 20.687 0 0 1 3.681 1.557 13.14 13.14 0 0 1 3.44 2.638A16.651 16.651 0 0 0 87.39 1.952a13.141 13.141 0 0 1 2.638 3.44 20.675 20.675 0 0 1 1.558 3.68ZM83.395 1.34c2.043.288 3.989 1.929 5.5 4.675a18.7 18.7 0 0 1 1.178 2.627 29.971 29.971 0 0 0-6.677-.867Z" data-name="Path 65798"/></svg>